{"title":"WWE.Friday.Night.Smackdown.2012.01.20.HDTV.XviD-vasylius","uid":6969994,"size":764024696,"categoryP":"video","categoryS":"tv_shows","magnet":"?xt=urn:btih:12e56dcede148c1b7121583898d5a297d83f58f4&amp;dn=WWE.Friday.Night.Smackdown.2012.01.20.HDTV.XviD-vasylius&amp;tr=udp%3A%2F%2Ftracker.openbittorrent.com%3A80&amp;tr=udp%3A%2F%2Fopen.demonii.com%3A1337&amp;tr=udp%3A%2F%2Ftracker.coppersurfer.tk%3A6969&amp;tr=udp%3A%2F%2Fexodus.desync.com%3A6969","seeders":0,"leechers":0,"uploader":"scene4all","files":-1,"time":1327060382,"description":"---------------------------------------------------------------------------------\n                                                                                 \n           SSSSSSSSSSSSSSS       444444444                 AAA                   \n         SS:::::::::::::::S     4::::::::4                A:::A                  \n        S:::::SSSSSS::::::S    4:::::::::4               A:::::A                 \n        S:::::S     SSSSSSS   4::::44::::4              A:::::::A                \n        S:::::S              4::::4 4::::4             A:::::::::A               \n        S:::::S             4::::4  4::::4            A:::::A:::::A              \n         S::::SSSS         4::::4   4::::4           A:::::A A:::::A             \n          SS::::::SSSSS   4::::444444::::444        A:::::A   A:::::A            \n            SSS::::::::SS 4::::::::::::::::4       A:::::A     A:::::A           \n               SSSSSS::::S4444444444:::::444      A:::::AAAAAAAAA:::::A          \n                    S:::::S         4::::4       A:::::::::::::::::::::A         \n                    S:::::S         4::::4      A:::::AAAAAAAAAAAAA:::::A        \n        SSSSSSS     S:::::S         4::::4     A:::::A             A:::::A       \n        S::::::SSSSSS:::::S       44::::::44  A:::::A               A:::::A      \n        S:::::::::::::::SS        4::::::::4 A:::::A                 A:::::A     \n         SSSSSSSSSSSSSSS          4444444444AAAAAAA                   AAAAAAA    \n                                                                                 \n                                                                                 \n---------------------------------------------------------------------------------\n\n             WWE.Friday.Night.Smackdown.2012.01.20.HDTV.XviD-vasylius            \n\n---------------------------------------------------------------------------------\n\nGeneral\nComplete name                   : WWE.Friday.Night.Smackdown.2012.01.20.HDTV.XviD\n                                  -vasylius.avi\nFormat                          : AVI\nFormat/Info                     : Audio Video Interleave\nFile size                       : 729 MiB\nDuration                        : 1h 16mn\nOverall bit rate                : 1 335 Kbps\n\nVideo\nID                              : 0\nFormat                          : MPEG-4 Visual\nFormat profile                  : Advanced Simple@L5\nFormat settings, BVOP           : 2\nFormat settings, QPel           : No\nFormat settings, GMC            : No warppoints\nFormat settings, Matrix         : Default (H.263)\nMuxing mode                     : Packed bitstream\nCodec ID                        : XVID\nCodec ID/Hint                   : XviD\nDuration                        : 1h 16mn\nBit rate                        : 1 198 Kbps\nWidth                           : 624 pixels\nHeight                          : 352 pixels\nDisplay aspect ratio            : 16:9\nFrame rate                      : 25.000 fps\nColor space                     : YUV\nChroma subsampling              : 4:2:0\nBit depth                       : 8 bits\nScan type                       : Progressive\nCompression mode                : Lossy\nBits/(Pixel*Frame)              : 0.218\nStream size                     : 653 MiB (90%)\nWriting library                 : XviD 1.2.1 (UTC 2008-12-04)\n\nAudio\nID                              : 1\nFormat                          : AC-3\nFormat/Info                     : Audio Coding 3\nMode extension                  : CM (complete main)\nCodec ID                        : 2000\nDuration                        : 1h 16mn\nBit rate mode                   : Constant\nBit rate                        : 128 Kbps\nChannel(s)                      : 2 channels\nChannel positions               : Front: L R\nSampling rate                   : 48.0 KHz\nBit depth                       : 16 bits\nCompression mode                : Lossy\nStream size                     : 69.8 MiB (10%)\nAlignment                       : Aligned on interleaves\nInterleave, duration            : 40 ms (1.00 video frame) \n\nScreenshots:\n &lt;a href=&quot;\nhttp://www.postimg.com/58000/photo-57925.jpg&quot; rel=&quot;nofollow&quot; target=&quot;_NEW&quot;&gt;\nhttp://www.postimg.com/58000/photo-57925.jpg&lt;/a&gt;\n &lt;a href=&quot;\nhttp://www.postimg.com/58000/photo-57926.jpg&quot; rel=&quot;nofollow&quot; target=&quot;_NEW&quot;&gt;\nhttp://www.postimg.com/58000/photo-57926.jpg&lt;/a&gt;\n &lt;a href=&quot;\nhttp://www.postimg.com/58000/photo-57927.jpg&quot; rel=&quot;nofollow&quot; target=&quot;_NEW&quot;&gt;\nhttp://www.postimg.com/58000/photo-57927.jpg&lt;/a&gt;\n\n---------------------------------------------------------------------------------","torrent":{"xt":"urn:btih:12e56dcede148c1b7121583898d5a297d83f58f4","amp;dn":"WWE.Friday.Night.Smackdown.2012.01.20.HDTV.XviD-vasylius","amp;tr":["udp%3A%2F%2Ftracker.openbittorrent.com%3A80","udp%3A%2F%2Fopen.demonii.com%3A1337","udp%3A%2F%2Ftracker.coppersurfer.tk%3A6969","udp%3A%2F%2Fexodus.desync.com%3A6969"],"infoHash":"12e56dcede148c1b7121583898d5a297d83f58f4","infoHashBuffer":{"type":"Buffer","data":[18,229,109,206,222,20,140,27,113,33,88,56,152,213,162,151,216,63,88,244]},"announce":[],"urlList":[]}}